<?xml version="1.0" encoding="UTF-8" standalone="no"?>
<!-- Created with Inkscape (http://www.inkscape.org/) -->

<svg
   xmlns:dc="http://purl.org/dc/elements/1.1/"
   xmlns:cc="http://creativecommons.org/ns#"
   xmlns:rdf="http://www.w3.org/1999/02/22-rdf-syntax-ns#"
   xmlns:svg="http://www.w3.org/2000/svg"
   xmlns="http://www.w3.org/2000/svg"
   xmlns:xlink="http://www.w3.org/1999/xlink"
   xmlns:sodipodi="http://sodipodi.sourceforge.net/DTD/sodipodi-0.dtd"
   xmlns:inkscape="http://www.inkscape.org/namespaces/inkscape"
   width="210mm"
   height="297mm"
   id="svg2"
   version="1.1"
   inkscape:version="0.48.4 r9939"
   sodipodi:docname="daytime.svg">
  <defs
     id="defs4">
    <linearGradient
       id="linearGradient3854">
      <stop
         style="stop-color:#6b6342;stop-opacity:1;"
         offset="0"
         id="stop3856" />
      <stop
         style="stop-color:#000000;stop-opacity:0;"
         offset="1"
         id="stop3858" />
    </linearGradient>
    <linearGradient
       id="linearGradient3790">
      <stop
         style="stop-color:#1900ce;stop-opacity:1;"
         offset="0"
         id="stop3792" />
      <stop
         style="stop-color:#ffce00;stop-opacity:0;"
         offset="1"
         id="stop3794" />
    </linearGradient>
    <linearGradient
       id="linearGradient3835">
      <stop
         id="stop3843"
         offset="0"
         style="stop-color:#000000;stop-opacity:0.9942857;" />
      <stop
         style="stop-color:#000000;stop-opacity:0;"
         offset="1"
         id="stop3839" />
    </linearGradient>
    <radialGradient
       inkscape:collect="always"
       xlink:href="#linearGradient3854"
       id="radialGradient3860"
       cx="359.31845"
       cy="488.90738"
       fx="359.31845"
       fy="488.90738"
       r="152.8289"
       gradientTransform="matrix(1,0,0,1.0912641,0,-114.42901)"
       gradientUnits="userSpaceOnUse" />
  </defs>
  <sodipodi:namedview
     id="base"
     pagecolor="#ffffff"
     bordercolor="#666666"
     borderopacity="1.0"
     inkscape:pageopacity="0.0"
     inkscape:pageshadow="2"
     inkscape:zoom="0.98994949"
     inkscape:cx="374.48049"
     inkscape:cy="748.78533"
     inkscape:document-units="px"
     inkscape:current-layer="layer1"
     showgrid="false"
     inkscape:window-width="1024"
     inkscape:window-height="719"
     inkscape:window-x="0"
     inkscape:window-y="0"
     inkscape:window-maximized="1" />
  <metadata
     id="metadata7">
    <rdf:RDF>
      <cc:Work
         rdf:about="">
        <dc:format>image/svg+xml</dc:format>
        <dc:type
           rdf:resource="http://purl.org/dc/dcmitype/StillImage" />
        <dc:title></dc:title>
      </cc:Work>
    </rdf:RDF>
  </metadata>
  <g
     inkscape:label="Ebene 1"
     inkscape:groupmode="layer"
     id="layer1">
    <rect
       style="color:#000000;fill:url(#radialGradient3860);fill-opacity:1.0;stroke:none;stroke-width:2.50000000000000000;stroke-linecap:round;stroke-linejoin:round;stroke-miterlimit:4;stroke-opacity:1;stroke-dasharray:none;marker:none;visibility:visible;display:inline;overflow:visible;enable-background:accumulate"
       id="rect3811"
       width="305.65781"
       height="165.86807"
       x="209.52"
       y="253.33151"
       inkscape:export-filename="/home/dave/tmp/daytimes/time-dawn.png"
       inkscape:export-xdpi="34.726398"
       inkscape:export-ydpi="34.726398" />
    <g
       style="stroke:none"
       id="g3804"
       transform="translate(329.0436,59.091372)">
      <g
         style="stroke:none"
         transform="matrix(1.2645161,0,0,1.2645161,-70.826797,-86.302299)"
         id="g3770" />
      <g
         id="text2985"
         style="font-size:24px;font-style:normal;font-variant:normal;font-weight:normal;font-stretch:normal;text-align:center;line-height:125%;letter-spacing:0px;word-spacing:0px;text-anchor:middle;fill:none;stroke:#180f0e;stroke-width:1.70787406;stroke-miterlimit:4;stroke-opacity:1;stroke-dasharray:none;font-family:Droid Sans;-inkscape-font-specification:Droid Sans">
        <path
           id="path3802"
           style="font-size:72px;fill:none;stroke:#180f0e;stroke-width:1.70787406;stroke-miterlimit:4;stroke-opacity:1;stroke-dasharray:none"
           d="m 269.15387,294.40829 2.70703,0 0.21094,0.21094 0,12.30469 -0.21094,0.21094 -2.70703,0 -0.21094,-0.21094 0,-12.30469 0.21094,-0.21094 m 19.72266,5.66016 2.03906,2.21484 0,0.10547 -8.71875,8.92969 -2.14453,-2.21484 8.82422,-9.03516 m -35.92969,0.66797 8.85937,8.92969 -2.14453,2.25 -0.10547,0 c -4.68751,-4.66403 -7.5586,-7.64059 -8.61328,-8.92969 l 0,-0.14063 2.00391,-2.10937 m 17.68359,8.47266 c 4.87496,3e-5 8.35543,2.63675 10.44141,7.91015 l 0.45703,3.375 c -4e-5,4.42971 -2.2266,7.81643 -6.67969,10.16016 -1.6641,0.53908 -3.03519,0.80861 -4.11328,0.80859 -4.10159,2e-5 -7.30081,-1.95701 -9.59766,-5.87109 -0.82033,-1.47654 -1.23049,-3.29295 -1.23046,-5.44922 -3e-5,-4.24216 2.1445,-7.57028 6.43359,-9.98438 1.57028,-0.63277 2.99997,-0.94918 4.28906,-0.94921 m -26.29687,9.66796 11.91797,0 0.21093,0.21094 0,2.77735 -0.21093,0.21093 -11.91797,0 -0.21094,-0.21093 0,-2.77735 0.21094,-0.21094 m 39.90234,0 12.12891,0 0.24609,0.21094 0,2.77735 -0.24609,0.21093 -12.12891,0 -0.21094,-0.21093 0,-2.77735 0.21094,-0.21094 m -2.70703,10.05469 0.10547,0 c 3.14058,3.04689 6.04682,5.9883 8.71875,8.82422 l 0,0.10547 -2.14453,2.17969 -8.71875,-8.89453 0,-0.14063 2.03906,-2.07422 m -22.67578,0.59766 0.10547,0 2.07422,2.10937 0,0.10547 -8.64844,8.92969 -2.17969,-2.21484 0,-0.14063 8.64844,-8.78906 m 10.30078,4.64062 2.70703,0 0.21094,0.21094 0,12.30469 -0.21094,0.21094 -2.70703,0 -0.21094,-0.21094 0,-12.30469 0.21094,-0.21094"
           inkscape:connector-curvature="0" />
      </g>
    </g>
    <path
       sodipodi:type="arc"
       style="color:#000000;fill:#6b6b6b;fill-opacity:1;fill-rule:nonzero;stroke:#808080;stroke-width:1.68044054999999992;stroke-opacity:1;marker:none;visibility:visible;display:inline;overflow:visible;enable-background:accumulate"
       id="path3821"
       sodipodi:cx="358.09909"
       sodipodi:cy="551.32654"
       sodipodi:rx="195.46452"
       sodipodi:ry="195.46452"
       d="m 553.56361,551.32654 a 195.46452,195.46452 0 1 1 -390.92904,0 195.46452,195.46452 0 1 1 390.92904,0 z"
       transform="matrix(1.0086028,0,0,1.0241067,0.4072717,-12.834519)" />
    <g
       style="font-size:24px;font-style:normal;font-variant:normal;font-weight:normal;font-stretch:normal;text-align:center;line-height:125%;letter-spacing:0px;word-spacing:0px;text-anchor:middle;fill:#000000;fill-opacity:1;stroke:none;font-family:Droid Sans;-inkscape-font-specification:Droid Sans"
       id="text2989"
       transform="matrix(1.9660984,0.34667619,-0.34667619,1.9660984,-197.54468,-439.72368)">
      <path
         d="m 461.92587,438.77051 c -2.1e-4,27.60419 -9.76582,51.17188 -29.29687,70.70312 -19.53141,19.53122 -43.0991,29.29683 -70.70313,29.29688 -27.60424,-5e-5 -51.17193,-9.76566 -70.70312,-29.29688 -19.53127,-19.53124 -29.29689,-43.09893 -29.29688,-70.70312 -10e-6,-27.60408 9.76561,-51.17177 29.29688,-70.70313 19.53119,-19.5311 43.09888,-29.29672 70.70312,-29.29687 27.60403,1.5e-4 51.17172,9.76577 70.70313,29.29687 19.53105,19.53136 29.29666,43.09905 29.29687,70.70313 m -13.67187,-45.41016 -0.78125,-1.46484 c -0.0653,0.19541 -0.0978,0.35817 -0.0977,0.48828 l 0,0.39062 0.39063,0.48829 0.48828,0.0976 m -18.35938,-20.01953 c -1.7e-4,-0.58581 -0.26059,-0.91133 -0.78125,-0.97656 -0.3908,0.32564 -0.61866,0.68371 -0.68359,1.07422 -1.8e-4,0.32564 -0.0653,0.91158 -0.19531,1.75781 -0.58611,2.27876 -0.87908,3.06001 -0.87891,2.34375 -1.7e-4,0.39074 0.22769,0.61861 0.68359,0.68359 1.23681,-1.10665 1.8553,-2.73425 1.85547,-4.88281 m -35.64453,-14.25781 c -0.45587,-0.26028 -1.56264,-1.36705 -3.32031,-3.32031 0.065,0.19545 0.13007,0.65118 0.19531,1.36718 0.45559,0.9116 1.30195,1.82306 2.53906,2.73438 0.065,-0.13007 0.26028,-0.39049 0.58594,-0.78125 m -0.29297,27.4414 0,-0.48828 c -1.30222,-0.71603 -2.01836,-1.07411 -2.14843,-1.07422 -0.8465,1.1e-4 -1.26967,0.71626 -1.26954,2.14844 -1.3e-4,1.56261 0.4556,2.34386 1.36719,2.34375 1.36705,1.1e-4 2.05064,-0.97645 2.05078,-2.92969 m -26.17187,-17.96875 c -1.2e-4,-0.5207 -0.4884,-0.97643 -1.46485,-1.36718 -0.19542,0.0652 -0.39073,0.26054 -0.58593,0.58593 0.39051,0.97669 0.94389,1.49753 1.66015,1.5625 0.26031,-0.5207 0.39051,-0.78112 0.39063,-0.78125 m -2.73438,0.87891 c -1.1e-4,-0.65091 -0.42328,-1.00899 -1.26953,-1.07422 -0.0652,0.13034 -0.13032,0.32565 -0.19531,0.58594 -1.1e-4,0.32565 0.1301,0.68372 0.39062,1.07422 l 0.48829,0.29297 c 0.39051,-0.3905 0.58582,-0.68347 0.58593,-0.87891 m 23.33985,26.5625 c -0.0652,-0.19521 -0.35821,-0.45563 -0.87891,-0.78125 -0.45586,-0.39052 -0.68373,-0.78115 -0.68359,-1.17187 -1.4e-4,-0.45563 0.0975,-0.94391 0.29297,-1.46485 0.26028,-0.52073 0.42304,-0.91135 0.48828,-1.17187 -0.84649,-0.58584 -2.05092,-1.52985 -3.61328,-2.83203 -1.3e-4,-0.45563 -0.0652,-0.8137 -0.19532,-1.07422 0.78112,-0.39052 1.33451,-0.74859 1.66016,-1.07422 -0.26055,-0.78114 -0.87904,-1.17177 -1.85547,-1.17188 -2.53919,1.1e-4 -3.80872,1.00923 -3.80859,3.02735 -1.3e-4,0.13031 0.65091,0.87901 1.95312,2.24609 1.30196,1.30219 1.953,2.27875 1.95313,2.92969 -1.3e-4,0.26052 -0.0978,0.58604 -0.29297,0.97656 -0.13034,0.39073 -0.19544,0.71625 -0.19531,0.97656 -1.3e-4,1.5626 0.74856,2.40895 2.24609,2.53907 1.95299,-0.71605 2.92955,-1.36709 2.92969,-1.95313 m -13.1836,-4.58984 c -0.13033,-0.19521 -0.97668,-0.8788 -2.53906,-2.05078 -1.3022,-0.97646 -1.95324,-1.6275 -1.95312,-1.95313 -1.2e-4,-0.26031 0.22774,-0.61838 0.68359,-1.07422 -0.26053,1.1e-4 -0.78137,0.13032 -1.5625,0.39063 0.2603,0.13031 0.39051,0.39073 0.39062,0.78125 -1.1e-4,0.65115 -0.39074,1.30219 -1.17187,1.95312 -0.39074,-0.1301 -0.91157,-0.61838 -1.5625,-1.46484 -0.58605,-0.91135 -1.00923,-1.36708 -1.26953,-1.36719 -1.17199,1.1e-4 -1.98579,0.91157 -2.44141,2.73438 -0.52094,2.01833 -1.20453,3.15765 -2.05078,3.41796 l 0.39063,0.29297 0.19531,0 c -0.19542,1.1e-4 0.22775,-0.42307 1.26953,-1.26953 4.62228,-0.26031 6.4452,-0.39052 5.46875,-0.39062 0.39051,1e-4 0.94389,0.16286 1.66016,0.48828 0.71602,0.32562 1.26941,0.48838 1.66015,0.48828 1.49728,1e-4 2.44129,-0.32542 2.83203,-0.97656 m 5.07813,33.59375 c -0.13034,-0.13014 -0.61862,-1.13925 -1.46485,-3.02735 -2.8647,-6.44523 -5.53397,-11.06762 -8.00781,-13.86718 -0.19543,0.39071 -0.45584,0.61857 -0.78125,0.68359 l -0.48828,-0.29297 -0.19531,0.29297 c 1.23686,2.27873 2.86446,4.88289 4.88281,7.8125 -1.2e-4,8e-5 -1.2e-4,0.45581 0,1.36719 -1.2e-4,0.52091 0.2603,1.10684 0.78125,1.75781 0.52071,0.58601 0.78113,1.10684 0.78125,1.5625 0.065,0.19539 1.49727,1.56257 4.29688,4.10156 l 0.19531,-0.39062 m -52.53906,-77.63672 c -9.24486,3.45066 -17.80605,8.23581 -25.6836,14.35547 0.13016,0.39076 0.19527,0.71628 0.19531,0.97656 -4e-5,0.32565 -0.0652,0.84649 -0.19531,1.5625 -0.13025,0.71628 -0.19536,1.23711 -0.19531,1.5625 -5e-5,0.13034 0.0976,0.52096 0.29297,1.17187 0.58589,1.3e-4 1.13927,0.19544 1.66015,0.58594 0.0651,-0.19518 0.81376,-1.04154 2.2461,-2.53906 1.43224,-1.49726 3.02729,-2.57148 4.78515,-3.22266 1.82286,-0.71601 2.96218,-1.30195 3.41797,-1.75781 1.10671,-1.10663 1.98562,-1.66002 2.63672,-1.66016 0.32546,1.4e-4 0.74864,0.0978 1.26953,0.29297 0.58588,0.19545 1.0416,0.29311 1.36719,0.29297 0.39056,1.4e-4 0.94394,-0.19517 1.66016,-0.58594 l -0.78125,-1.46484 c 0.45566,-1.23684 1.20436,-1.92043 2.24609,-2.05078 l -0.29297,-0.39063 0.0977,-1.5625 0.19531,-0.29296 1.5625,-0.58594 c 0.45566,0.13035 0.97649,0.42332 1.5625,0.8789 l 0.0977,-0.0976 0.39062,-0.87891 0.0977,0 -0.29297,-0.68359 c -7e-5,-0.84621 0.39055,-1.49725 1.17187,-1.95313 -7e-5,-0.97641 0.16269,-1.62745 0.48829,-1.95312 m 43.35937,52.05078 c -1.2e-4,-0.45563 -0.19543,-0.87881 -0.58594,-1.26953 -0.58605,0.19541 -1.33475,0.29306 -2.24609,0.29297 -0.19543,9e-5 -0.42329,-0.065 -0.68359,-0.19532 -0.26053,-0.19521 -0.4884,-0.29287 -0.6836,-0.29296 -0.19542,9e-5 -0.48839,0.1303 -0.8789,0.39062 -0.32564,0.19541 -0.58605,0.29307 -0.78125,0.29297 -1.3673,1e-4 -2.44152,-0.58584 -3.22266,-1.75781 -0.71625,-1.17178 -0.94412,-2.40876 -0.68359,-3.71094 -1.49751,-0.26031 -1.88813,-0.39052 -1.17188,-0.39063 -0.32563,1.1e-4 -0.39073,0.42328 -0.19531,1.26954 l -0.78125,0.58593 -0.0977,0.6836 0.39063,0.48828 c -0.0652,0.84645 -0.42329,1.72536 -1.07422,2.63672 -0.19542,-0.58584 -0.6186,-1.39964 -1.26953,-2.44141 -0.65115,-0.78115 -1.59516,-2.3111 -2.83203,-4.58984 -1.17198,-0.45563 -2.47406,-1.5624 -3.90625,-3.32032 -0.52093,-0.1952 -1.04177,-0.29286 -1.5625,-0.29296 l 0,0.48828 c -1e-4,0.26052 0.065,0.52094 0.19531,0.78125 0.39053,0.45583 1.04157,1.23708 1.95312,2.34375 0.19522,0.19541 0.94392,0.55349 2.2461,1.07422 1.10667,0.39072 1.66005,0.8139 1.66015,1.26953 -10e-5,0.32562 -0.26051,0.55348 -0.78125,0.68359 -0.52093,0.13031 -0.84645,0.39073 -0.97656,0.78125 l 0.19531,0.78125 c -0.32562,0.39072 -0.58603,0.65114 -0.78125,0.78125 l -0.39062,0 -0.29297,-0.48828 c 0.19521,-1.23688 0.29287,-1.52985 0.29297,-0.87891 -10e-5,-0.91135 -1.53005,-2.31109 -4.58985,-4.19922 -0.32561,-0.1952 -0.91155,-0.84624 -1.75781,-1.95312 l -0.58594,-0.29297 c -0.2605,1.1e-4 -0.71623,0.29308 -1.36718,0.87891 -0.65113,0.58604 -1.26962,0.87901 -1.85547,0.8789 -0.1954,1.1e-4 -1.20452,0.35818 -3.02735,1.07422 -1.30216,1.75792 -1.98576,3.32041 -2.05078,4.6875 -0.3907,0.71625 -1.20451,1.26963 -2.4414,1.66016 -1.56258,0.39072 -2.50659,0.71624 -2.83203,0.97656 0.71606,0.39072 1.302,0.58603 1.75781,0.58594 0.32544,9e-5 0.74862,-0.0976 1.26953,-0.29297 0.58586,-0.19522 0.97648,-0.32543 1.17187,-0.39063 0.58586,1e-4 1.46476,-0.13011 2.63672,-0.39062 2.40877,-0.84626 3.71085,-1.26943 3.90625,-1.26953 0.19523,10e-5 0.4882,0.0652 0.87891,0.19531 0.45564,0.13031 0.78116,0.19541 0.97656,0.19531 0.19522,10e-5 0.45564,-0.0325 0.78125,-0.0976 0.32543,-0.065 0.58585,-0.0976 0.78125,-0.0977 1.17178,1e-4 1.75772,0.48838 1.75781,1.46484 -9e-5,0.58604 -0.0326,1.00921 -0.0976,1.26954 -0.45582,0.45582 -0.879,0.84644 -1.26953,1.17187 2.08324,0.58603 4.26422,1.56259 6.54297,2.92969 0.78115,0.0652 1.88792,0.39071 3.32031,0.97656 -1e-4,-2.08324 0.68349,-3.12491 2.05078,-3.125 0.1301,9e-5 0.91135,0.42327 2.34375,1.26953 1.49729,0.84645 2.92958,1.26962 4.29687,1.26953 0.32541,9e-5 1.10666,-0.32543 2.34375,-0.97656 0.26031,9e-5 0.58583,0.0652 0.97657,0.19531 0.45561,0.0652 0.81368,0.0977 1.07422,0.0977 0.3905,9e-5 0.84623,-0.6835 1.36718,-2.05078 0.39051,-1.17178 0.58582,-2.05069 0.58594,-2.63672 m 0.78125,40.82031 c -1.2e-4,-0.065 -0.0652,-0.26036 -0.19531,-0.58594 -1.3022,0.586 -1.95324,0.87897 -1.95313,0.87891 -0.84647,6e-5 -1.26964,0.7813 -1.26953,2.34375 -1.1e-4,0.26047 0.0975,0.7162 0.29297,1.36719 l 1.26953,0.0976 0.78125,-0.78125 c 0.71603,-2.4088 1.0741,-3.51557 1.07422,-3.32031 m 87.59766,0.19531 c 0.0649,-6.18483 -0.42339,-12.33717 -1.46485,-18.45703 l -0.19531,-0.19531 c 0.0649,-2.47388 -1.04187,-7.12882 -3.32031,-13.96484 -0.52104,2.47404 -1.43249,4.13419 -2.73438,4.98047 -0.52103,0.13029 -1.26973,0.35815 -2.24609,0.68359 -0.45593,0.2605 -1.10697,0.65112 -1.95313,1.17187 -1.9e-4,0.52092 -0.0327,1.30217 -0.0976,2.34375 -0.26061,0.2605 -0.814,0.48836 -1.66016,0.6836 -0.1955,-0.26034 -0.29316,-0.52076 -0.29297,-0.78125 -1.9e-4,-0.26034 0.13002,-0.55331 0.39063,-0.87891 0.26022,-0.39054 0.39043,-0.71606 0.39062,-0.97656 -1.9e-4,-1.10669 -0.35826,-1.66007 -1.07422,-1.66016 -1.69289,9e-5 -2.53925,0.74878 -2.53906,2.2461 -1.9e-4,1.30216 0.71596,2.767 2.14844,4.39453 1.4321,1.56257 2.2459,2.99486 2.44141,4.29687 0.26022,0.26049 0.39043,0.55346 0.39062,0.87891 -1.9e-4,0.4558 -0.8791,1.59512 -2.63672,3.41797 -0.1955,0.45579 -0.68378,1.00918 -1.46484,1.66015 -0.26061,-0.19524 -0.35826,-0.84628 -0.29297,-1.95312 -0.52102,-0.26035 -1.23717,-0.71608 -2.14844,-1.36719 -0.1955,-0.32545 -1.0093,-0.97649 -2.4414,-1.95312 -0.65123,0.71621 -0.97675,1.36725 -0.97657,1.95312 -1.8e-4,1.88809 0.87872,3.6459 2.63672,5.27344 1.75763,1.56256 2.60398,3.22272 2.53906,4.98047 0.45554,0.45578 0.68341,0.81386 0.6836,1.07422 -1.9e-4,0.0652 -0.0653,0.26047 -0.19531,0.58593 -0.1304,0.0652 -0.32571,0.13027 -0.58594,0.19532 -0.52102,5e-5 -1.62779,-1.26948 -3.32031,-3.8086 l 0.0976,-0.58593 c -1.8231,-3.25515 -2.73456,-5.40358 -2.73437,-6.44532 -1.9e-4,-2.79941 -0.0653,-3.71086 -0.19532,-2.73437 -1.43247,-1.30201 -2.14861,-2.83196 -2.14843,-4.58985 l -0.39063,-0.29296 c -0.19549,7e-5 -0.45591,0.16283 -0.78125,0.48828 -0.3257,0.32559 -0.61867,0.48835 -0.8789,0.48828 -0.58612,7e-5 -0.78143,-0.68352 -0.58594,-2.05078 -0.19549,-0.13014 -0.42336,-0.32545 -0.6836,-0.58594 -0.19549,-0.32544 -0.4559,-0.78117 -0.78125,-1.36719 -0.71632,-0.65096 -1.79054,-1.69263 -3.22265,-3.125 -0.84653,0.78133 -1.49757,1.17196 -1.95313,1.17188 -1.04183,8e-5 -2.63688,1.49747 -4.78515,4.49218 -0.58611,0.52091 -1.43246,1.30216 -2.53907,2.34375 -0.45589,5.66413 -1.20459,8.49616 -2.24609,8.4961 -0.26058,6e-5 -0.81396,-0.29291 -1.66016,-0.87891 -0.84651,-1.82285 -2.01838,-4.55722 -3.51562,-8.20312 -0.32568,-1.62753 -1.00927,-3.93873 -2.05078,-6.9336 -0.19547,0.0652 -0.39078,0.2605 -0.58594,0.58594 -0.19547,0.3256 -0.52099,0.48836 -0.97656,0.48828 -0.91161,8e-5 -1.56265,-0.39054 -1.95313,-1.17187 -0.39077,-0.84628 -0.74885,-1.66008 -1.07422,-2.44141 -0.7814,-1.10669 -1.46499,-1.66007 -2.05078,-1.66016 -0.26056,9e-5 -0.68374,0.0652 -1.26953,0.19532 -0.52098,0.0652 -0.9116,0.0977 -1.17187,0.0976 -0.13036,9e-5 -0.29312,-0.0325 -0.48828,-0.0976 -0.13036,-0.065 -0.26057,-0.0976 -0.39063,-0.0977 -0.32566,9e-5 -0.8465,0.0977 -1.5625,0.29297 -0.65118,0.13029 -1.13946,0.1954 -1.46484,0.19531 -1.36733,9e-5 -2.37644,-0.6184 -3.02735,-1.85547 -0.84649,-0.13012 -1.88815,-0.19522 -3.125,-0.19531 -0.65117,9e-5 -1.53008,-0.65095 -2.63672,-1.95312 -1.1069,-1.3671 -1.95325,-2.0507 -2.53906,-2.05079 -0.78138,9e-5 -1.172,0.19541 -1.17187,0.58594 -1.3e-4,2.01832 1.52981,3.64592 4.58984,4.88281 l 0,0.58594 c -1.3e-4,0.52092 0.22773,0.78134 0.68359,0.78125 1.04154,9e-5 2.05065,-0.65096 3.02735,-1.95312 l 0.68359,0 c 0.45559,0.71623 1.23684,1.69279 2.34375,2.92968 1.36705,1.10686 2.05064,1.7579 2.05078,1.95313 -1.4e-4,1.17195 -1.10691,2.92976 -3.32031,5.27344 -2.08347,2.0834 -3.80873,3.41804 -5.17578,4.0039 -1.30222,0.58601 -3.15768,0.91153 -5.56641,0.97657 -0.39075,0.5209 -0.81393,0.78131 -1.26953,0.78125 -0.26054,6e-5 -0.52096,-0.0976 -0.78125,-0.29297 l -0.29297,0.48828 c 0.3254,1.36725 0.97644,2.05085 1.95313,2.05078 1.95299,7e-5 3.51549,-0.32545 4.6875,-0.97656 0.84622,-0.45566 1.23684,-0.68353 1.17187,-0.6836 0.58581,7e-5 0.87877,0.68366 0.87891,2.05078 -1.4e-4,0.13028 -0.68373,1.66023 -2.05078,4.58985 -0.0652,1.62766 -0.68373,2.86464 -1.85547,3.71094 -1.17201,0.84641 -2.34388,1.69276 -3.51563,2.53906 -3.45064,3.32036 -5.1759,6.38026 -5.17578,9.17969 -1.2e-4,0.8464 0.3254,2.40889 0.97657,4.6875 0.65091,2.47399 1.23685,3.84118 1.75781,4.10156 -0.19544,0.52087 -0.55351,1.26957 -1.07422,2.24609 -0.26054,0.32556 -1.33476,1.20446 -3.22266,2.63672 -1.82303,1.36722 -2.73449,2.27868 -2.73437,2.73438 -1.2e-4,0.26044 0.16264,0.55341 0.48828,0.8789 l 0,0.39063 c -1.2e-4,1.43232 -0.29309,2.50653 -0.87891,3.22265 -0.58605,0.65107 -1.20454,1.36721 -1.85547,2.14844 -0.19542,0.58596 -0.52094,1.49742 -0.97656,2.73438 -1.23709,2.66928 -2.37641,4.39454 -3.41797,5.17578 -1.04177,0.71616 -3.06,1.17189 -6.05468,1.36718 -0.32563,2e-5 -0.84646,0.0977 -1.5625,0.29297 -0.65115,0.13023 -1.17198,0.19533 -1.5625,0.19532 -0.91156,1e-5 -1.59516,-0.84634 -2.05079,-2.53907 -0.19541,-1.23696 -0.42327,-2.47394 -0.68359,-3.71093 -0.32562,-0.45571 -0.78135,-1.17186 -1.36719,-2.14844 -0.32562,-1.9531 -1.04176,-4.85024 -2.14843,-8.69141 -0.19541,-0.4557 -0.65114,-1.10674 -1.36719,-1.95312 -0.45583,-0.4557 -0.68369,-1.36716 -0.6836,-2.73438 -9e-5,-0.71611 0.35798,-1.66012 1.07422,-2.83203 0.71605,-1.17183 1.07413,-2.11584 1.07422,-2.83203 -9e-5,0.39067 -0.26051,-0.45569 -0.78125,-2.53906 0.19522,-0.32548 0.29287,-0.651 0.29297,-0.97657 -1e-4,0.32557 -0.65114,-0.91141 -1.95312,-3.71093 -0.13031,-0.52079 -0.39072,-1.26948 -0.78125,-2.2461 -0.19541,-0.26036 -0.71624,-0.7812 -1.5625,-1.5625 -0.52093,-0.39057 -0.78134,-1.17182 -0.78125,-2.34375 -9e-5,-0.32546 0.26032,-0.61843 0.78125,-0.8789 0.065,-0.13016 0.0976,-0.32547 0.0976,-0.58594 -9e-5,-0.52078 -0.0652,-1.00906 -0.19531,-1.46484 l -0.19531,0.29296 -0.78125,-0.19531 0,-0.58594 c 0.19522,-0.26035 0.48819,-0.35801 0.8789,-0.29296 0.13012,-0.26036 0.19522,-0.71609 0.19532,-1.36719 -1e-4,-0.32546 -0.16286,-0.58588 -0.48829,-0.78125 -1.10686,0.52089 -1.72535,0.78131 -1.85546,0.78125 -0.45582,6e-5 -1.10686,-0.42312 -1.95313,-1.26953 -0.84644,-0.8463 -1.59514,-1.26947 -2.24609,-1.26953 -0.39071,6e-5 -1.10686,0.29303 -2.14844,0.8789 -1.04175,0.5209 -1.75789,0.78131 -2.14844,0.78125 -0.13029,6e-5 -0.35815,-0.0325 -0.68359,-0.0976 -0.2605,-0.13015 -0.45581,-0.19526 -0.58594,-0.19532 -0.65112,6e-5 -1.59513,0.0977 -2.83203,0.29297 -1.17195,0.13027 -2.08341,0.19537 -2.73438,0.19531 -1.95319,6e-5 -3.90632,-1.20436 -5.85937,-3.61328 -0.39069,-0.84629 -1.00918,-2.11582 -1.85547,-3.80859 -1.30215,-2.27858 -1.95319,-3.483 -1.95312,-3.61328 -7e-5,-0.065 0.0325,-0.22779 0.0976,-0.48828 0.9765,-1.30201 1.46478,-2.70175 1.46485,-4.19922 -7e-5,-0.45565 -0.0977,-1.07414 -0.29297,-1.85547 -0.19538,-0.84628 -0.29304,-1.49732 -0.29297,-1.95313 -7e-5,-0.26033 0.2929,-0.58585 0.8789,-0.97656 0.065,-0.52075 0.26035,-1.2369 0.58594,-2.14844 0.39056,-0.45564 1.00905,-1.13923 1.85547,-2.05078 0.32545,-0.52074 0.81373,-1.26944 1.46484,-2.24609 0.52077,-0.32543 1.23691,-0.91137 2.14844,-1.75781 0.065,-0.065 0.19524,-0.58585 0.39063,-1.5625 0.26034,-1.49731 1.9856,-3.41788 5.17578,-5.76172 -0.52091,-0.65095 -1.00919,-0.97647 -1.46485,-0.97656 -0.13028,9e-5 -0.29304,0.0652 -0.48828,0.19531 -0.19538,0.0652 -0.35814,0.0978 -0.48828,0.0976 -0.78132,1e-4 -1.17195,-1.10667 -1.17187,-3.32031 -8e-5,-0.71604 0.22779,-1.72516 0.68359,-3.02734 0.45565,-1.30198 0.71607,-2.21344 0.78125,-2.73438 l 0.19531,0 c 0.45566,1.1e-4 1.1067,0.13032 1.95313,0.39063 0.91138,0.19542 1.59497,0.29307 2.05078,0.29297 1.62752,10e-5 2.44132,-0.71604 2.44141,-2.14844 -9e-5,-0.91135 -0.32561,-1.72515 -0.97657,-2.44141 -0.65112,-0.78114 -0.97664,-1.23686 -0.97656,-1.36718 l 0.29297,-0.78125 c 1.17179,0.13032 1.59497,0.19542 1.26953,0.19531 1.69263,1.1e-4 3.58064,-1.07411 5.66406,-3.22266 0.26033,-0.39051 0.71606,-0.94389 1.36719,-1.66015 0.52074,-0.52072 1.39965,-0.74858 2.63672,-0.6836 0.065,-0.2603 0.0976,-0.55327 0.0977,-0.8789 -10e-5,-0.1952 -0.0978,-0.48817 -0.29297,-0.87891 -0.1303,-0.39051 -0.19541,-0.68347 -0.19532,-0.87891 -9e-5,-0.065 0.35799,-0.61837 1.07422,-1.66015 0.19522,-0.065 0.45564,-0.13009 0.78125,-0.19532 0.58585,1.3e-4 0.87882,0.32565 0.87891,0.97657 -9e-5,0.19543 -0.1303,0.4884 -0.39063,0.8789 -0.1954,0.32564 -0.29306,0.58606 -0.29296,0.78125 -10e-5,1.172 1.10667,1.75793 3.32031,1.75782 0.45563,1.1e-4 1.07412,-0.13009 1.85547,-0.39063 0.84625,-0.3254 1.49729,-0.48816 1.95312,-0.48828 1.43219,1.2e-4 2.21344,-0.55327 2.34375,-1.66016 0.19521,-1.62748 0.39052,-2.53894 0.58594,-2.73437 l 0.58594,0 c 0.1301,0.45585 0.32541,1.17199 0.58593,2.14844 0.39052,-0.13009 0.58584,-0.81368 0.58594,-2.05079 -10e-5,-0.58581 0.45563,-0.94388 1.36719,-1.07421 0.91135,-0.13009 1.49729,-0.39051 1.75781,-0.78125 l 0,-0.39063 0.0977,0 c -0.0652,-0.065 -0.16287,-0.0975 -0.29297,-0.0977 -2.47406,1.3e-4 -3.93891,0.39075 -4.39453,1.17188 -0.32563,-0.13008 -0.48839,-0.58581 -0.48828,-1.36719 -0.52094,-0.3905 -0.78136,-0.87878 -0.78125,-1.46484 -1.1e-4,-0.065 0.39052,-0.68347 1.17187,-1.85547 0.78115,-1.17175 1.23688,-1.92044 1.36719,-2.24609 -0.13031,-0.065 -0.32563,-0.13008 -0.58594,-0.19532 -0.19541,1.3e-4 -1.07432,0.74883 -2.63672,2.2461 -1.49749,1.43242 -2.24619,2.0509 -2.24609,1.85547 -10e-5,0.26054 0.22776,0.68372 0.68359,1.26953 0.45563,0.58606 0.6835,1.04179 0.6836,1.36718 -0.45583,0.65117 -1.13943,1.62773 -2.05078,2.92969 l 0,1.5625 c -0.26052,0.0652 -0.58604,0.26054 -0.97657,0.58594 -0.39072,0.32564 -0.71624,0.4884 -0.97656,0.48828 -0.26051,1.2e-4 -0.65114,-0.68347 -1.17187,-2.05078 0.065,-1.56238 -0.68369,-2.34363 -2.2461,-2.34375 -0.32561,1.2e-4 -0.74879,0.19543 -1.26953,0.58594 -0.52092,0.32564 -0.9441,0.4884 -1.26953,0.48828 -0.84644,1.2e-4 -1.26962,-1.39962 -1.26953,-4.19922 l -0.48828,-0.78125 0.39062,-0.58594 0.78125,-0.0976 c 0.45564,-0.19519 1.13923,-0.55326 2.05078,-1.07422 l 4.00391,-3.02735 c 0.26032,-0.19518 1.39964,-1.66002 3.41797,-4.39453 0.97646,-1.30194 3.05979,-1.95298 6.25,-1.95312 0.65093,1.4e-4 1.33453,0.19545 2.05078,0.58593 0.91135,0.58608 1.52984,0.9116 1.85547,0.97657 1.49728,0.13034 2.99468,0.2931 4.49219,0.48828 1.8879,0.32565 2.83191,1.17201 2.83203,2.53906 l -0.19532,0.39063 -0.97656,0.29296 -0.8789,-0.68359 c -0.32564,0.13034 -0.61861,0.19545 -0.87891,0.19531 -0.26053,1.4e-4 -0.94412,-0.19518 -2.05078,-0.58593 l -1.26953,0.58593 c -1.1e-4,0.13034 -0.0327,0.32566 -0.0977,0.58594 -1.1e-4,1.1069 0.61838,2.01836 1.85547,2.73438 l 0.78125,0 c 0.13009,-0.4556 0.45561,-0.65092 0.97656,-0.58594 0.84624,0.13034 1.33452,0.16289 1.46485,0.0976 0.065,-0.39049 0.3254,-0.87877 0.78125,-1.46484 l 2.05078,-0.58594 0.58593,-0.58593 0.0977,-0.39063 c -0.52095,-0.13007 -0.91158,-0.65091 -1.17187,-1.5625 0.13009,-0.32538 0.3254,-0.48814 0.58593,-0.48828 0.52072,1.4e-4 1.30197,0.61862 2.34375,1.85547 2.60405,-1.49726 3.90613,-2.24596 3.90625,-2.2461 0.19519,1.4e-4 0.42306,0.1629 0.6836,0.48829 0.26029,0.32565 0.48815,0.48841 0.68359,0.48828 0.26029,1.3e-4 0.65092,-0.0324 1.17188,-0.0977 0.58581,-0.13007 1.00898,-0.19518 1.26953,-0.19531 0.39049,1.3e-4 0.71601,0.0652 0.97656,0.19531 l 0.0977,-0.0977 0,-0.29296 c -1.23711,-1.10664 -1.8556,-1.72513 -1.85547,-1.85547 -1.3e-4,-0.5207 0.26029,-0.78111 0.78125,-0.78125 0.39049,1.4e-4 1.23685,0.42331 2.53906,1.26953 1.36705,0.84649 2.40872,1.26967 3.125,1.26953 0.13007,1.4e-4 0.48815,-0.16263 1.07422,-0.48828 -0.13035,-0.26028 -0.61863,-0.81367 -1.46485,-1.66016 -0.65117,-0.6509 -0.97669,-1.33449 -0.97656,-2.05078 -1.3e-4,-0.78111 0.61836,-1.17173 1.85547,-1.17187 0.26028,1.4e-4 0.91132,0.29311 1.95313,0.8789 0.45559,-0.52069 0.78111,-0.78111 0.97656,-0.78125 0.26028,1.4e-4 0.87877,0.55353 1.85547,1.66016 -1.4e-4,-0.065 -1.4e-4,-0.29283 0,-0.6836 -1.4e-4,-0.52069 0.32538,-0.7811 0.97656,-0.78125 l 0.39062,0.19532 0.19532,-0.29297 c -0.0652,-0.19517 -0.13035,-0.42304 -0.19532,-0.6836 -1.4e-4,-0.32537 0.19518,-0.58579 0.58594,-0.78125 -0.13035,1.5e-4 0.68345,-0.52069 2.44141,-1.5625 1.04152,-0.58579 2.70167,-1.04152 4.98047,-1.36718 -12.82566,-5.85923 -26.33476,-8.78891 -40.52735,-8.78907 -10.93759,1.6e-4 -21.58211,1.79052 -31.93359,5.3711 l 0,0.29297 0.58594,0.48828 -0.19532,0.68359 c -1.04174,1.5e-4 -1.56257,0.19546 -1.5625,0.58594 -7e-5,0.58608 0.0325,1.13947 0.0977,1.66016 -0.91153,1.4e-4 -1.36726,0.32566 -1.36719,0.97656 0.32545,0.26056 0.48821,0.52097 0.48828,0.78125 -7e-5,0.0652 -0.0326,0.19545 -0.0976,0.39062 l -0.58594,0.58594 -0.0977,0.58594 c -0.26049,0.26056 -0.68366,0.61863 -1.26953,1.07422 -0.4558,-0.32538 -1.17194,-0.74856 -2.14843,-1.26953 l -0.19532,0.29296 c 0.97649,1.62775 1.46478,2.57176 1.46485,2.83204 -7e-5,0.0652 -0.19539,0.48842 -0.58594,1.26953 -1.36726,-0.97643 -1.92064,-1.46471 -1.66016,-1.46485 -0.45579,1.4e-4 -0.81387,0.35821 -1.07422,1.07422 0.91139,0.19545 1.36712,0.58608 1.36719,1.17188 -7e-5,0.39076 -0.48835,0.81393 -1.46484,1.26953 -0.97663,0.39076 -1.69278,0.58607 -2.14844,0.58594 -0.32559,1.3e-4 -0.78131,-0.0975 -1.36719,-0.29297 -0.52089,-0.19518 -0.94407,-0.29284 -1.26953,-0.29297 0.39056,1.3e-4 -0.32558,0.55352 -2.14844,1.66015 -1.49745,0.26055 -4.00396,1.7254 -7.51953,4.39454 -0.26047,0.19544 -0.55344,0.52096 -0.8789,0.97656 -0.26047,0.13033 -0.6511,0.58606 -1.17188,1.36719 -0.52088,0.71627 -0.94406,1.07434 -1.26953,1.07421 -0.19536,1.3e-4 -0.48833,-0.13008 -0.87891,-0.39062 -0.32557,-0.32539 -0.58598,-0.48816 -0.78125,-0.48828 -0.0652,1.2e-4 -0.19536,0.0652 -0.39062,0.19531 -0.13026,0.0652 -0.22791,0.0978 -0.29297,0.0977 -0.7813,1.2e-4 -1.17192,-0.97644 -1.17187,-2.92969 -5e-5,-0.3905 0.065,-0.91133 0.19531,-1.5625 0.13016,-0.71601 0.19526,-1.23685 0.19531,-1.5625 -4.23181,3.38555 -8.23572,7.22669 -12.01172,11.52344 0.5208,0.45585 1.3346,1.17199 2.44141,2.14843 l 0,0.58594 c -0.71618,0.84647 -3.15759,1.92069 -7.32422,3.22266 l -0.39063,0.48828 0.48829,0.29297 0,0.48828 -0.6836,0.29297 -0.48828,-0.0977 c -0.0651,0.0652 -0.61852,0.87902 -1.66016,2.44141 l 0.6836,0.0976 -0.0977,0.58594 c -0.45575,0.13032 -0.94404,0.32563 -1.46484,0.58594 0.26039,0.0652 0.68356,0.13032 1.26953,0.19531 l 0.19531,0.6836 c -0.39065,0.26052 -1.33466,0.65115 -2.83203,1.17187 -7.42189,11.97926 -12.01173,25.03264 -13.76953,39.16016 0.39061,0.26048 2.27863,0.71621 5.66406,1.36718 0.84634,0.19538 1.85545,0.81387 3.02735,1.85547 1.43227,1.43236 2.34372,2.24616 2.73437,2.44141 0.91144,0.586 2.96221,1.20449 6.15234,1.85547 0.78122,0.91152 1.17185,2.24615 1.17188,4.0039 -3e-5,0.32558 -0.0651,0.81386 -0.19531,1.46485 -0.0651,0.65109 -0.0977,1.10682 -0.0977,1.36719 0.0651,5e-5 0.29294,5e-5 0.68359,0 0.78122,5e-5 2.05075,0.42323 3.8086,1.26953 1.82288,0.8464 3.12496,1.26958 3.90625,1.26953 0.78121,5e-5 2.01819,0.45578 3.71094,1.36719 1.69266,0.8464 2.76688,1.56254 3.22265,2.14843 0.78121,0.19536 1.17183,1.07427 1.17188,2.63672 -5e-5,1.10682 -0.68364,2.53911 -2.05078,4.29688 -1.36723,1.69274 -2.05083,3.05993 -2.05079,4.10156 -4e-5,0.26045 0.0325,0.65108 0.0977,1.17187 0.13017,0.52087 0.19527,0.9115 0.19531,1.17188 -4e-5,4.2318 -0.81384,7.03128 -2.4414,8.39844 -0.71619,0.13023 -1.7253,0.4883 -3.02735,1.07422 -1.69274,0.19533 -2.53909,0.78127 -2.53906,1.75781 -3e-5,0.32554 0.13017,0.81382 0.39063,1.46484 0.26038,0.58596 0.39059,1.04169 0.39062,1.36719 -3e-5,0.97658 -0.58597,2.60418 -1.75781,4.88281 -1.17191,2.27866 -1.75785,3.71095 -1.75781,4.29688 -0.19535,1e-5 -0.45577,-0.0325 -0.78125,-0.0977 -0.32556,10e-6 -0.58597,10e-6 -0.78125,0 -0.65108,10e-6 -1.13936,0.0977 -1.46485,0.29297 0.71612,0.78126 1.07419,1.39975 1.07422,1.85547 -3e-5,1.17188 -0.45576,1.92058 -1.36719,2.24609 -1.49742,0.45574 -2.31122,0.74871 -2.4414,0.87891 0.13018,0.26042 0.19528,0.55339 0.19531,0.8789 -3e-5,0.45574 -0.16279,0.91147 -0.48828,1.36719 2.66924,4.23177 5.66403,8.23567 8.98437,12.01172 l 0.0977,-0.0977 1.07422,0.0977 -0.0977,1.17188 c 10.41662,11.52341 22.7864,20.05205 37.10938,25.58593 0.39055,-0.52086 0.61841,-1.30211 0.68359,-2.34375 0.45566,-0.32555 0.78118,-0.48831 0.97656,-0.48828 0.13014,-3e-5 0.2929,0.0325 0.48828,0.0977 0.26035,0.13017 0.45566,0.19528 0.58594,0.19531 0.19524,-3e-5 0.81373,-0.61852 1.85547,-1.85547 1.04159,-1.1719 2.18091,-1.75784 3.41797,-1.75781 0.13013,-3e-5 0.35799,0.0325 0.68359,0.0977 0.32544,0.0651 0.55331,0.0976 0.6836,0.0977 0.78116,-3e-5 1.85538,-0.293 3.22265,-0.8789 1.43221,-0.58597 2.34367,-0.87894 2.73438,-0.87891 0.71605,-3e-5 1.79027,0.0976 3.22265,0.29297 1.4322,0.26039 2.50642,0.3906 3.22266,0.39062 0.45563,-2e-5 1.07412,-0.13023 1.85547,-0.39062 0.78115,-0.26045 1.39964,-0.39065 1.85547,-0.39063 0.65094,-2e-5 1.59495,0.0976 2.83203,0.29297 1.23688,0.26039 2.18089,0.3906 2.83203,0.39063 3.71083,-3e-5 6.05458,-0.61852 7.03125,-1.85547 0.65093,-0.13024 1.56239,-0.19534 2.73438,-0.19531 0.065,-3e-5 0.2603,0.0976 0.58593,0.29296 0.32541,0.2604 0.58583,0.3906 0.78125,0.39063 0.45562,-3e-5 1.23687,-0.22789 2.34375,-0.68359 1.10666,-0.45576 2.05066,-0.68362 2.83203,-0.6836 0.2603,-2e-5 0.58582,-0.13023 0.97657,-0.39062 0.4556,-0.26044 0.81368,-0.39065 1.07422,-0.39063 l 0.29296,0.19531 c 0.13009,-2e-5 0.52071,-0.35809 1.17188,-1.07421 0.65092,-0.71617 1.33451,-1.07425 2.05078,-1.07422 2.08321,1.30206 4.94779,2.18096 8.59375,2.63672 l 0.48828,0.68359 c 0.13007,-3e-5 0.32539,-0.0326 0.58594,-0.0977 0.45559,-2e-5 0.94387,0.35805 1.46484,1.07422 0.5858,0.71612 0.94388,1.07419 1.07422,1.07422 0.71601,-3e-5 1.92043,-0.32555 3.61328,-0.97656 1.69257,-0.58597 2.86444,-0.91149 3.51563,-0.97656 0.65089,-0.71617 3.54803,-1.00914 8.6914,-0.87891 l 0.48829,-0.39063 0.48828,0 c 1.10661,-2e-5 1.92041,0.29295 2.4414,0.87891 0.13005,-2e-5 0.29281,-0.0977 0.48828,-0.29297 0.26026,-0.13023 0.45558,-0.19534 0.58594,-0.19531 0.13005,-3e-5 0.48812,0.35805 1.07422,1.07422 l 0.48828,-0.6836 c 1.04151,-0.39065 1.7902,-0.45575 2.2461,-0.19531 13.54149,-9.04949 24.15345,-20.67058 31.83593,-34.86328 l -0.48828,0 c -1.9e-4,-0.1302 -0.0327,-0.35806 -0.0976,-0.68359 -2e-4,-0.32551 0.26022,-1.00911 0.78125,-2.05078 0.58574,-1.04166 0.87871,-1.72525 0.8789,-2.05079 -1.9e-4,-0.13019 -0.0328,-0.3255 -0.0976,-0.58593 -0.0653,-0.32551 -0.0979,-0.55337 -0.0977,-0.6836 -2e-4,-0.3255 0.0324,-0.84633 0.0977,-1.5625 0.13001,-0.71612 0.19511,-1.23696 0.19531,-1.5625 -2e-4,-0.3906 -0.16296,-0.87888 -0.48828,-1.46484 -0.32572,-0.58592 -0.48848,-1.04165 -0.48828,-1.36719 l 0.8789,-0.29297 0.29297,-0.19531 c -2e-4,-0.0651 -0.0328,-0.19529 -0.0977,-0.39062 -1.9e-4,-2.47394 0.65085,-3.71092 1.95313,-3.71094 l 0.68359,0.29297 c 1.10657,-1.10675 1.92038,-1.66013 2.44141,-1.66016 0.26022,3e-5 0.68339,-0.19528 1.26953,-0.58594 1.30188,-4.42705 2.27844,-8.75647 2.92969,-12.98828 l -0.0977,0 0,-0.68359 0.19531,-0.0977 c 0.13001,-0.97652 0.29277,-2.40881 0.48829,-4.29687 -0.19552,-0.78121 -0.29318,-1.62756 -0.29297,-2.53907 -2.1e-4,-2.01817 0.26021,-3.58067 0.78125,-4.6875 l 0,-0.78125 m -91.01563,9.96094 c -0.52095,-1.23693 -1.3022,-3.05985 -2.34375,-5.46875 l -0.68359,-0.0976 -0.39063,0.68359 c 0.58583,1.30213 1.39963,2.99484 2.44141,5.07812 l 0.58594,0.29297 0.39062,-0.48828 m 3.8086,6.64063 c -1.2e-4,-0.5208 -0.0978,-1.26949 -0.29297,-2.2461 -0.13033,-1.04162 -0.19543,-1.75777 -0.19532,-2.14843 l -0.58593,0 c -0.26054,0.65108 -0.39075,1.23702 -0.39063,1.75781 -1.2e-4,1.82295 0.42306,2.89717 1.26953,3.22265 0.065,-0.13017 0.13009,-0.32548 0.19532,-0.58593 m 41.11328,64.64843 -1.26953,0 -0.19532,-0.19531 -0.58593,0.19531 -1.26954,-0.48828 c -0.32567,-0.26044 -0.7814,-0.39065 -1.36718,-0.39062 l -0.0977,0.0977 c -0.19547,0.0651 -1.88817,0.0976 -5.07812,0.0977 -1.56265,-3e-5 -2.99494,0.35805 -4.29688,1.07422 -0.71629,0.13018 -1.88816,0.48825 -3.51562,1.07422 -1.56264,0.58591 -2.83217,0.87888 -3.8086,0.8789 -0.0652,-2e-5 -0.91159,-0.71617 -2.53906,-2.14843 l -0.39063,0.0976 -1.36718,-0.58593 -0.0977,-0.19532 c -3.38555,-0.45575 -6.08737,-1.26955 -8.10547,-2.4414 -0.19544,0.0651 -0.65116,0.4557 -1.36719,1.17187 -0.65116,0.78123 -1.3022,1.04164 -1.95312,0.78125 -3.06002,1.36716 -5.43632,2.05076 -7.12891,2.05078 -0.58605,-2e-5 -1.17199,-0.22789 -1.75781,-0.68359 l -1.5625,0.0977 c -1.30219,1.30205 -3.90636,1.95309 -7.8125,1.95312 -0.65114,-3e-5 -1.59515,-0.13024 -2.83203,-0.39062 -1.23708,-0.19535 -2.18109,-0.293 -2.83203,-0.29297 -0.45583,-3e-5 -1.07432,0.13018 -1.85547,0.39062 -0.78135,0.26039 -1.39984,0.3906 -1.85547,0.39063 -0.71624,-3e-5 -1.79046,-0.13024 -3.22266,-0.39063 -1.43238,-0.19534 -2.5066,-0.293 -3.22265,-0.29297 -0.32561,-3e-5 -1.20452,0.29294 -2.63672,0.87891 -1.36727,0.58591 -2.47404,0.87888 -3.32031,0.87891 -0.13029,-3e-5 -0.35816,-0.0326 -0.6836,-0.0977 -0.3256,-0.0651 -0.55346,-0.0977 -0.68359,-0.0977 -0.84644,-3e-5 -1.79044,0.65101 -2.83203,1.95313 -0.97664,1.30205 -2.05086,1.82288 -3.22266,1.5625 l -0.68359,1.66015 c 10.87231,4.03642 22.20042,6.05465 33.98437,6.05469 18.61967,-4e-5 35.7746,-4.88285 51.46485,-14.64844 m -25,-168.16406 -0.6836,0.19531 c -0.32565,-0.19517 -0.48841,-0.48813 -0.48828,-0.8789 l 0.29297,-0.48828 c 0.32539,1.4e-4 0.61836,0.0652 0.87891,0.19531 l 0,0.97656 m -10.25391,-8.39844 c -0.0652,0.39078 -0.26054,0.7814 -0.58594,1.17188 -0.26054,-0.26027 -0.45585,-0.52068 -0.58593,-0.78125 l 0.29296,-0.58594 c 0.3254,1.5e-4 0.61837,0.0653 0.87891,0.19531 m -1.5625,1.75782 c -0.13033,1.5e-4 -0.35819,0.0327 -0.68359,0.0976 l -0.39063,0 0,-0.48828 c -1.2e-4,-0.13006 0.065,-0.39047 0.19531,-0.78125 0.19519,0.0653 0.48816,0.19546 0.87891,0.39063 l 0,0.78125 m -2.63672,-3.125 -0.19531,1.07422 -0.58594,0 c -1.2e-4,-0.32537 0.065,-0.74855 0.19531,-1.26954 l 0.58594,0.19532 m 84.76563,83.10547 c -0.13042,2.2136 -0.84656,3.48313 -2.14844,3.80859 -0.13041,-0.32546 -0.19552,-0.58587 -0.19531,-0.78125 -2.1e-4,0.65111 0.55318,-0.45566 1.66015,-3.32031 l 0.6836,0.29297 m -86.91407,-83.20313 -0.0976,0.58594 -0.39063,0.29297 -0.58593,-0.48828 0.29296,-0.6836 0.78125,0.29297 m 2.92969,2.92969 c -0.26054,0.39077 -0.65116,0.58608 -1.17187,0.58594 -0.26054,1.4e-4 -0.4884,-0.26027 -0.6836,-0.78125 l 0.39063,-0.58594 c 0.26029,1.5e-4 0.68347,0.0652 1.26953,0.19531 l 0.19531,0.19531 0,0.39063 m 9.96094,3.61328 c -0.13034,0.13035 -1.30221,0.78139 -3.51563,1.95312 -1.95325,0.97671 -2.92981,1.95327 -2.92968,2.92969 0.32539,0.32566 0.91133,0.74884 1.75781,1.26953 -0.0652,0.39077 -0.19544,0.94415 -0.39063,1.66016 -2.01835,-1.04153 -3.02746,-2.01809 -3.02734,-2.92969 -1.2e-4,-1.30194 0.48816,-2.44126 1.46484,-3.41797 0.65092,1.5e-4 1.49727,-0.32537 2.53907,-0.97656 1.04154,-0.6509 1.88789,-0.97642 2.53906,-0.97656 0.13008,1.4e-4 0.55325,0.0327 1.26953,0.0976 l 0.29297,0.39063 M 372.5704,345.7041 c -0.13032,0.39078 -0.32564,0.68374 -0.58593,0.87891 l -0.6836,-0.39063 0.0977,-0.48828 0.29297,-0.39062 c 0.19519,0.0652 0.48816,0.19546 0.8789,0.39062 m 3.41797,13.57422 -0.19531,0.68359 -0.48828,0.0977 -0.58594,-0.39062 c 0.065,-0.32539 0.16264,-0.61836 0.29297,-0.87891 0.19519,1.4e-4 0.52071,0.1629 0.97656,0.48828 m 82.91016,75 c -2.1e-4,-0.13015 -0.22807,0.29303 -0.68359,1.26953 l -0.97657,-0.48828 c -0.26062,0.26048 -0.39083,0.55345 -0.39062,0.87891 -2.1e-4,1.75787 0.42297,3.05995 1.26953,3.90625 -0.19552,0.32557 -0.52104,0.58599 -0.97656,0.78125 l 0.29297,0.68359 c -0.13042,0.19537 -0.29318,0.52089 -0.48829,0.97656 -0.13041,0.84641 -0.26062,1.66021 -0.39062,2.44141 -0.26062,0.97661 -0.84656,1.46489 -1.75781,1.46484 -0.19552,5e-5 -0.45593,-0.22781 -0.78125,-0.68359 l -0.48828,0.29297 c -0.13041,5e-5 -0.29317,-0.0651 -0.48829,-0.19531 -0.1304,-0.19527 -0.26061,-0.29292 -0.39062,-0.29297 -0.0653,5e-5 -0.19551,0.0651 -0.39063,0.19531 -0.1304,0.0652 -0.22806,0.0977 -0.29296,0.0977 -0.97676,5e-5 -1.85567,-0.651 -2.63672,-1.95313 -0.71634,-1.30203 -1.07442,-2.4739 -1.07422,-3.51562 -2e-4,-0.13016 0.19512,-0.68354 0.58594,-1.66016 0.52063,0.13026 1.07402,0.19537 1.66015,0.19531 0.19512,6e-5 0.7485,-0.52077 1.66016,-1.5625 0.19511,-0.065 0.42298,-0.1627 0.68359,-0.29297 0.0649,-0.32546 0.22767,-0.78119 0.48828,-1.36718 0.32532,-0.26036 0.78105,-0.74864 1.36719,-1.46485 0.32532,6e-5 0.61829,0.0652 0.87891,0.19531 0.0649,-0.39056 0.19511,-0.9765 0.39062,-1.75781 l 0.6836,0 c 1.49719,1.17194 2.24588,1.79043 2.24609,1.85547 m -10.54688,0.78125 -0.19531,0.68359 -0.58594,0 -0.29296,-0.58593 0.39062,-0.48828 0.68359,0.39062 m -2.24609,1.66016 -1.07422,-0.19532 0.39063,-0.58593 0.68359,0.19531 0,0.58594 m -88.76953,-89.84375 c -0.32562,0.32567 -0.81391,0.81395 -1.46484,1.46484 -0.84646,-0.39048 -1.79047,-1.00897 -2.83204,-1.85547 0.13011,-0.065 0.81371,-0.39047 2.05079,-0.97656 0.52073,0.32567 1.26942,0.7814 2.24609,1.36719 m 73.82812,77.73437 -0.68359,0.0977 -0.39062,-0.58594 0.39062,-0.29297 c 0.45555,0.26049 0.68342,0.52091 0.68359,0.78125 M 356.9454,349.41504 c -1e-4,0.71629 -0.55348,1.07436 -1.66015,1.07422 -0.19542,1.4e-4 -0.42328,-0.13007 -0.6836,-0.39063 l 0,-0.8789 c 0.39053,-0.13007 1.00902,-0.32538 1.85547,-0.58594 0.32542,0.19546 0.48818,0.45587 0.48828,0.78125 m 74.51172,76.5625 -0.68359,0.48828 -0.29297,-0.68359 0.48828,-0.58594 c 0.19514,0.26049 0.3579,0.5209 0.48828,0.78125 m 26.75782,25.39062 c -0.32573,0.71619 -0.97677,1.07427 -1.95313,1.07422 l -0.97656,0 c -0.0653,-0.52079 -0.0979,-0.81376 -0.0977,-0.8789 0.52063,-0.19527 1.33443,-0.42314 2.44141,-0.6836 l 0.58594,0.48828 m -22.07032,-19.33593 c -0.13039,0.19537 -0.3908,0.35813 -0.78125,0.48828 l -0.29297,-0.48828 0.39063,-0.48828 0.68359,0.48828 m -5.07812,-5.07813 c -0.2606,0.4558 -0.52101,0.68366 -0.78125,0.6836 l -0.29297,-0.48829 0.39062,-0.58593 0.6836,0.39062 m 17.67578,18.16406 c -0.1304,0.13026 -0.32572,0.35813 -0.58594,0.6836 l -0.48828,-0.48828 0,-0.58594 c 0.32533,5e-5 0.6834,0.13026 1.07422,0.39062 m -94.43359,-96.1914 c -0.91156,0.58608 -1.72536,1.26967 -2.44141,2.05078 -0.19541,-0.065 -0.52093,-0.48814 -0.97656,-1.26953 -0.65114,-0.13006 -1.49749,-0.55324 -2.53907,-1.26953 l 0,-0.97657 c -9e-5,-0.39047 0.16267,-0.58578 0.48829,-0.58593 0.19521,1.5e-4 0.42308,0.0978 0.68359,0.29297 0.26032,0.13035 0.48818,0.19546 0.68359,0.19531 0.19522,1.5e-4 0.45564,-0.065 0.78125,-0.19531 0.39053,-0.19517 0.6835,-0.29282 0.87891,-0.29297 1.04157,1.5e-4 1.85537,0.68374 2.44141,2.05078 m 76.95312,80.37109 -0.78125,0.58594 -0.29297,-0.58594 0.29297,-0.39062 0.78125,0.39062 m 23.53516,22.46094 c -2e-4,0.52088 -0.29317,0.78129 -0.87891,0.78125 -0.26062,4e-5 -0.68379,-0.13017 -1.26953,-0.39063 -0.58614,-0.26037 -1.17207,-0.35803 -1.75781,-0.29296 -0.32572,-0.39059 -1.07442,-0.5859 -2.2461,-0.58594 -0.1304,4e-5 -0.45592,-0.0325 -0.97656,-0.0977 -0.19551,-0.39058 -0.68379,-0.58589 -1.46484,-0.58594 l -1.17188,0 c -0.0653,-0.32547 -0.0978,-0.61844 -0.0976,-0.8789 1.36699,-0.39058 2.99459,-0.52079 4.88281,-0.39063 l 0.48828,-0.29297 3.90625,1.07422 c 0.0649,0.26046 0.0974,0.55343 0.0977,0.87891 0.32532,0.19536 0.48808,0.45577 0.48828,0.78125 m -8.4961,-8.00781 c -0.1304,0.26046 -0.65123,0.35812 -1.5625,0.29297 0.26023,0.45578 0.5532,1.6602 0.87891,3.61328 l 0.29297,0.68359 c -1.9e-4,0.45578 -0.22806,0.68364 -0.6836,0.68359 -0.39081,5e-5 -1.10696,-0.55333 -2.14843,-1.66015 -0.58613,-0.58589 -0.91165,-0.84631 -0.97657,-0.78125 l 0,0.0976 -0.19531,0 c -1.04185,5e-5 -1.95331,-1.6601 -2.73437,-4.98046 -0.45592,-0.39058 -1.07441,-1.07417 -1.85547,-2.05079 -0.0653,-0.26036 -0.16295,-0.68353 -0.29297,-1.26953 -0.71633,-0.78119 -1.66034,-2.05072 -2.83203,-3.80859 0.19513,-0.19525 0.45555,-0.29291 0.78125,-0.29297 0.84617,6e-5 1.82273,0.55345 2.92969,1.66016 0.91127,0.84641 1.79017,1.69276 2.63671,2.53906 0.26023,0.39068 0.65086,0.91151 1.17188,1.5625 0.39044,0.26047 0.91127,0.7162 1.5625,1.36719 0.26023,0.58599 0.74851,1.43234 1.46484,2.53906 -1.9e-4,-0.13016 -0.0327,-0.32547 -0.0976,-0.58594 -1.9e-4,-0.32547 0.16257,-0.48823 0.48828,-0.48828 0.26022,5e-5 0.65085,0.29302 1.17187,0.87891 m -10.64453,-4.88282 c -0.3257,0.19537 -0.61867,0.29303 -0.8789,0.29297 l -0.39063,-0.58593 0.39063,-0.58594 0.8789,0.39062 0,0.48828 m 1.5625,1.66016 -0.48828,0.48828 c -0.45591,-0.26036 -0.68378,-0.52078 -0.68359,-0.78125 l 0.29297,-0.58594 c 0.39044,0.13027 0.68341,0.26048 0.8789,0.39063 l 0,0.48828 m 1.46485,1.85547 c -1.9e-4,0.52089 -0.1955,0.84641 -0.58594,0.97656 l -0.6836,-0.48828 c 0.0649,-0.45568 0.29279,-0.68354 0.6836,-0.68359 0.0649,5e-5 0.26023,0.0651 0.58594,0.19531 m 0.78125,3.22266 -0.39063,0.29296 -0.58594,0 -0.0976,-0.68359 0.39062,-0.48828 0.48828,0 0.19532,0.29297 0,0.58594 m 2.4414,1.95312 c -0.13039,0.45578 -0.32571,0.68364 -0.58594,0.68359 -0.1955,5e-5 -0.39081,-0.19526 -0.58593,-0.58593 l 0.39062,-0.48828 0.48828,0 0.29297,0.39062 m -22.16797,-15.33203 c -1.6e-4,0.5209 -0.35824,1.10683 -1.07422,1.75781 -0.6512,-1.23691 -0.97672,-2.11582 -0.97656,-2.63672 -1.6e-4,-0.52077 0.19515,-1.0416 0.58594,-1.5625 l 0.48828,0 c 0.65088,1.23705 0.9764,2.05085 0.97656,2.44141 m -9.375,-3.51563 -0.68359,0.0977 -0.29297,-0.58594 0.48828,-0.29297 c 0.32537,0.32559 0.48813,0.58601 0.48828,0.78125 m -56.34765,-54.6875 c -1e-4,0.58606 -0.26052,0.87903 -0.78125,0.87891 l -0.48828,-0.48828 0.39062,-0.87891 c 0.58584,0.0652 0.87881,0.22799 0.87891,0.48828 m 56.93359,58.4961 c -0.19547,0.0652 -0.42333,0.13027 -0.68359,0.19531 l -0.19532,0 -0.29296,-0.58594 c 0.26026,-0.26035 0.39046,-0.48821 0.39062,-0.68359 l 0.68359,0.19531 c 0.065,0.13027 0.0975,0.35814 0.0977,0.6836 l 0,0.19531 m 0.0977,1.46484 c -0.13037,0.39069 -0.32568,0.68366 -0.58594,0.87891 -0.19547,-0.13015 -0.42333,-0.35801 -0.68359,-0.6836 l 0.39062,-0.48828 c 0.19516,0.0652 0.48812,0.16282 0.87891,0.29297 m 0.19531,1.46485 c -1.6e-4,0.39068 -0.0653,0.68365 -0.19531,0.8789 -0.32568,-0.13015 -0.61865,-0.32546 -0.87891,-0.58594 l 0.39063,-0.58593 0.68359,0.29297 m 0.0977,1.66015 -0.29297,0.87891 c -0.32568,6e-5 -0.5861,-0.26036 -0.78125,-0.78125 l 0.29297,-0.48828 0.78125,0.39062 m -62.40235,-61.32812 -0.8789,0.68359 c -0.52093,-0.13009 -0.78135,-0.29285 -0.78125,-0.48828 l 0,-0.29297 0.8789,-0.68359 0.78125,0.78125 m 62.79297,64.35547 -0.48828,0.68359 c -0.0653,5e-5 -0.39078,-0.71609 -0.97656,-2.14844 l 0.39062,-0.39062 0.58594,0.0976 c -1.6e-4,0.26048 -0.0653,0.61855 -0.19531,1.07422 0.32536,0.19537 0.55322,0.42323 0.68359,0.6836 m -0.19531,1.36718 c -1.6e-4,0.39068 -0.19547,0.6511 -0.58594,0.78125 -0.32568,-0.13015 -0.48844,-0.32546 -0.48828,-0.58593 l 0.29297,-0.58594 0.78125,0.39062 m -41.79688,-42.08984 -0.0976,0.78125 c -0.13033,0.1303 -0.74882,0.42327 -1.85547,0.87891 -0.32564,-0.13012 -0.4884,-0.39053 -0.48828,-0.78125 -1.2e-4,-0.78116 0.42306,-1.17178 1.26953,-1.17188 -0.13033,1e-4 0.1952,0.0326 0.97656,0.0977 l 0.19531,0.19531 m -31.05468,-28.32031 -0.0977,0.0976 -0.78125,0 -0.0977,-0.19531 0,-0.19531 0.29297,-0.48828 0.58594,0.0976 0.0977,0.58594 0,0.0977 m -4.49219,-3.22266 -0.39063,0.48828 -0.68359,0 -0.0977,-0.48828 0.39063,-0.58594 c 0.26033,0.13034 0.52075,0.32565 0.78125,0.58594 m 58.39844,58.98438 c -0.19546,0.0652 -0.42332,0.13027 -0.6836,0.19531 l -0.19531,0 -0.39063,-0.78125 c -1.3e-4,-0.065 0.065,-0.16269 0.19532,-0.29297 0.13007,-0.13014 0.19517,-0.2278 0.19531,-0.29297 0.32538,7e-5 0.61835,0.0652 0.87891,0.19531 l 0,0.97657 m -55.17579,-55.3711 c -8e-5,0.19544 -0.19539,0.45585 -0.58593,0.78125 l -0.48828,-0.39062 0,-0.48828 0.58593,-0.29297 0.48828,0.39062 m 53.22266,55.66406 c -1.4e-4,0.0652 -0.0327,0.16283 -0.0977,0.29297 l -0.48828,0 c -0.0652,7e-5 -0.26055,-0.0325 -0.58593,-0.0976 -1.4e-4,-0.13014 -0.0327,-0.32546 -0.0977,-0.58594 -1.4e-4,-0.26035 0.19518,-0.52076 0.58594,-0.78125 l 0.58593,0.19531 0.0977,0.78125 0,0.19531 m 19.43359,20.70313 c -0.19546,0.0652 -0.42333,0.13026 -0.68359,0.19531 l -0.19531,0 -0.0977,-0.19531 0,-0.29297 c 0.065,-0.13016 0.16261,-0.35802 0.29297,-0.68359 l 0.58594,0.0976 c 0.0649,0.0652 0.0975,0.16281 0.0976,0.29297 l 0,0.58594 M 362.41415,399.5127 c -1e-4,0.78134 -0.55349,1.17197 -1.66015,1.17187 -1.56261,10e-5 -2.34386,-0.52074 -2.34375,-1.5625 -1.1e-4,-0.45563 0.22776,-0.6835 0.68359,-0.68359 0.1301,9e-5 0.32542,0.1303 0.58594,0.39062 0.32541,0.19541 0.61838,0.29307 0.87891,0.29297 -0.32563,10e-5 0.22775,-0.065 1.66015,-0.19531 0.065,0.1303 0.1301,0.32562 0.19531,0.58594 m -33.78906,-34.375 c -1.88809,0.91158 -3.12507,1.36731 -3.71094,1.36718 -0.39069,1.3e-4 -0.97663,-0.0975 -1.75781,-0.29297 -0.71621,-0.26028 -1.2696,-0.39049 -1.66015,-0.39062 l -0.19532,-0.68359 c -6e-5,1.3e-4 0.0325,-0.68347 0.0977,-2.05079 0.26035,-0.26028 0.65097,-0.6509 1.17187,-1.17187 1.17181,0.52097 1.69264,0.78138 1.5625,0.78125 0.19525,1.3e-4 0.48821,-0.16263 0.87891,-0.48828 l 1.36719,0 c 1.36711,1.3e-4 2.11581,0.97669 2.24609,2.92969 m 10.35156,14.84375 c -8e-5,0.39074 -0.2605,0.78136 -0.78125,1.17187 -2.14852,0.0652 -3.80867,0.58605 -4.98046,1.5625 l -0.58594,0 -0.29297,-0.68359 c -8e-5,-0.32541 0.45565,-0.74859 1.36719,-1.26953 -0.0652,-0.1301 -0.2605,-0.35796 -0.58594,-0.6836 -8e-5,-0.39051 0.26034,-0.71603 0.78125,-0.97656 -8e-5,-0.39051 0.19523,-0.87879 0.58594,-1.46484 -8e-5,-0.65093 -0.61857,-1.39962 -1.85547,-2.2461 -8e-5,-0.19519 0.0325,-0.48816 0.0976,-0.8789 0.13013,-0.45561 0.19524,-0.78113 0.19532,-0.97657 -8e-5,-0.26029 -0.13029,-0.52071 -0.39063,-0.78125 0.71607,-0.65092 0.97648,-0.78112 0.78125,-0.39062 l 0.0977,0 c 0.19523,1.2e-4 0.52075,-0.22774 0.97656,-0.6836 l 0.48828,0 c 0.19523,0.52096 0.65096,1.172 1.36719,1.95313 -8e-5,0.13033 -0.1954,0.65116 -0.58594,1.5625 2.21346,1.43241 3.32023,3.02746 3.32031,4.78516 m 7.32422,11.32812 -0.39062,0.68359 -0.58594,-0.0976 -0.39062,-0.58594 c -10e-5,-0.26031 0.19522,-0.52073 0.58593,-0.78125 l 0.6836,0.19531 0.0976,0.58594 M 333.5079,377.44238 c -8e-5,0.0652 -0.4558,0.74882 -1.36718,2.05078 l -0.58594,0.0977 c -0.19539,0.13032 -0.48836,0.32564 -0.87891,0.58594 l -0.29297,0 -0.29296,0.19531 c -0.45581,-0.39051 -0.68367,-0.78113 -0.6836,-1.17187 -7e-5,-0.32541 0.13013,-0.68348 0.39063,-1.07422 -8e-5,-0.2603 0.0325,-0.65093 0.0976,-1.17188 0.45566,-0.3254 1.1067,-0.78113 1.95313,-1.36719 1.10669,0.91158 1.66007,1.53007 1.66015,1.85547 m 18.06641,19.53125 0,0.48828 c -0.0652,0.26052 -0.13031,0.65114 -0.19531,1.17188 l -1.66016,-0.0977 c -0.84645,-0.58584 -1.26962,-1.04157 -1.26953,-1.36718 -9e-5,-0.45563 0.26032,-0.6835 0.78125,-0.6836 0.13011,1e-4 0.32543,0.0652 0.58594,0.19531 0.26032,0.13031 0.45563,0.19542 0.58594,0.19532 l 0.29296,-0.29297 0.78125,0 c 0.065,0.0652 0.0976,0.19541 0.0977,0.39062 m -5.27344,-2.24609 c -9e-5,0.32562 -0.0652,0.58604 -0.19531,0.78125 -0.52092,-0.13011 -1.13941,-0.84625 -1.85547,-2.14844 -9e-5,-0.26031 0.19522,-0.48818 0.58594,-0.68359 0.97647,0.78135 1.46475,1.46494 1.46484,2.05078 m 4.10157,5.07812 -0.0977,0.58594 -0.58594,0 -0.29297,-0.58594 0.39063,-0.48828 0.48828,0 0.0977,0.48828 m 43.84765,45.60547 -0.19531,0.87891 -0.68359,0 -0.29297,-0.39063 0.29297,-0.68359 c 0.32538,0.13026 0.61834,0.19536 0.8789,0.19531 m -51.95312,-51.26953 -0.58594,0.48828 c -0.32561,-0.1301 -0.48837,-0.32542 -0.48828,-0.58593 l 0.39062,-0.48829 0.29297,0 0.39063,0.39063 0,0.19531 m 49.51172,52.05078 c -0.19545,5e-5 -0.45587,0.0326 -0.78125,0.0977 l -0.29297,0 -0.0977,-0.19531 c -1.4e-4,-0.26037 0.0975,-0.61844 0.29297,-1.07422 0.19517,0.0652 0.48814,0.19536 0.87891,0.39062 l 0,0.78125 m -51.95313,-51.95312 -0.0977,0.58594 -0.48828,0.29296 -0.48828,-0.48828 0.39063,-0.58593 0.68359,0.19531 m 51.26953,52.63672 -0.19531,0.68359 -0.58594,-0.0977 -0.29297,-0.48828 0.39063,-0.58593 0.68359,0.48828 m -51.95312,-51.26953 -0.29297,0.8789 -0.6836,-0.39062 0.39063,-0.6836 0.58594,0.19532 m 51.5625,52.53906 c -1.4e-4,0.39067 -0.26056,0.68364 -0.78125,0.8789 l -0.48828,-0.58593 0.58593,-0.6836 0.6836,0.39063 m -6.25,4.29687 -0.29297,0.87891 -0.6836,0 -0.29296,-0.39063 c 0.13007,-0.19527 0.32539,-0.48823 0.58593,-0.8789 l 0.6836,0.39062 m -6.73828,-4.39453 c -1.3e-4,0.26047 -0.16289,0.48833 -0.48829,0.6836 l -0.78125,-0.48829 c -1.2e-4,-0.45568 0.19519,-0.74865 0.58594,-0.8789 0.45561,0.26046 0.68347,0.48833 0.6836,0.68359 m 17.08984,17.38281 -0.19531,0.87891 -0.58594,-0.0977 -0.29297,-0.29296 c 0.13007,-0.19529 0.32538,-0.48826 0.58594,-0.87891 l 0.48828,0.39062 M 377.9415,449.12207 c -1.3e-4,0.45578 -0.0652,0.81385 -0.19531,1.07422 -0.32565,4e-5 -0.65117,-0.0976 -0.97657,-0.29297 0.13009,-0.651 0.35795,-0.97652 0.6836,-0.97656 l 0.48828,0.19531 m 4.98047,6.54297 -0.0977,0.68359 c -0.13034,4e-5 -0.2931,0.0326 -0.48828,0.0977 -0.32565,4e-5 -0.58607,-0.26038 -0.78125,-0.78125 -0.19544,0.0651 -0.45586,0.0977 -0.78125,0.0977 -1.3e-4,-0.32549 -0.13034,-0.61845 -0.39063,-0.87891 -0.13033,4e-5 -0.35819,0.0326 -0.68359,0.0977 l -0.29297,-0.58594 c -1.2e-4,-0.32548 0.19519,-0.55335 0.58594,-0.6836 l 0.68359,0.0977 c -1.2e-4,0.0652 -1.2e-4,0.29301 0,0.68359 l 0,0.39063 0.39063,-0.29297 0.58594,0.19531 c -1.3e-4,0.32556 0.0324,0.61853 0.0976,0.87891 l 0.48828,-0.39063 0.6836,0.39063 m 9.76562,10.25391 -0.58594,0.48828 -0.68359,0 0,-0.19532 c -1.4e-4,-0.0651 0.065,-0.29294 0.19531,-0.68359 l 0.87891,0 0.19531,0.39063 m -4.39453,-6.83594 c -1.3e-4,0.0651 -0.35821,0.32555 -1.07422,0.78125 -0.58607,2.08336 -1.17201,4.13414 -1.75781,6.15234 -1.1069,3.77607 -2.6694,5.66409 -4.6875,5.66406 -0.91159,3e-5 -1.36731,-1.04164 -1.36719,-3.125 -1.2e-4,-0.65101 0.16264,-1.56247 0.48828,-2.73437 0.3254,-1.17184 0.48816,-2.0833 0.48828,-2.73438 -1.2e-4,-1.43225 0.78113,-2.83199 2.34375,-4.19921 2.08321,-1.69267 3.28763,-2.86455 3.61329,-3.51563 l 0.78125,0 c 0.78111,3.05993 1.17174,4.29691 1.17187,3.71094 m -74.12109,-63.96485 -0.29297,0.6836 -0.6836,0 c -6e-5,-0.065 -0.0326,-0.16266 -0.0976,-0.29297 l 0,-0.19531 c -6e-5,-0.065 0.065,-0.26032 0.19531,-0.58594 l 0.48828,0.0977 0.39063,0.29296 m 6.93359,7.03125 -0.39062,0.78125 -0.6836,-0.48828 0.39063,-0.48828 0.68359,0.19531 m -7.51953,-5.37109 -0.39063,0.78125 c -0.45578,-0.13011 -0.68365,-0.32542 -0.68359,-0.58594 -6e-5,-0.065 0.065,-0.26031 0.19531,-0.58593 l 0.58594,0.0976 0.29297,0.29297 m -2.05078,-1.46484 -0.39063,0.29297 0,0.48828 -0.39062,0.39062 c -0.45579,-0.19521 -0.68365,-0.42308 -0.6836,-0.68359 -5e-5,0.26051 0.26036,-0.22777 0.78125,-1.46485 l 0.6836,0.39063 0,0.58594 M 323.254,406.6416 c -0.0652,0.45582 -0.42325,0.68368 -1.07422,0.6836 -0.32559,0.45581 -0.65111,0.68368 -0.97656,0.68359 l -0.39063,-0.19531 c -0.19538,0.39071 -0.42324,0.68368 -0.68359,0.8789 l -0.58594,-0.29297 0.0977,-0.58593 c 0.71608,-0.19523 1.66009,-0.71606 2.83203,-1.5625 l 0.78125,0.39062 m -4.19922,0.39063 -0.39063,0.68359 -0.58593,-0.19531 0.19531,-0.6836 c 0.19525,9e-5 0.45566,0.0652 0.78125,0.19532 m -0.0977,1.5625 c -0.32558,0.3256 -0.586,0.48836 -0.78125,0.48828 l -0.29297,-0.58594 0.39063,-0.48828 c 0.39056,0.1954 0.61842,0.39071 0.68359,0.58594 m -27.53906,-24.80469 c -4e-5,0.45584 -0.35811,0.6837 -1.07422,0.68359 -0.19535,1.1e-4 -0.45576,-0.13009 -0.78125,-0.39062 -0.26045,-0.1301 -0.65108,-0.0976 -1.17187,0.0976 -0.19535,-0.2603 -0.48832,-0.61837 -0.87891,-1.07421 -0.32555,0.13032 -0.61852,0.19542 -0.87891,0.19531 -0.65107,1.1e-4 -0.97659,-0.26031 -0.97656,-0.78125 -3e-5,-0.58583 0.48825,-1.33452 1.46485,-2.2461 0.97652,-0.91134 1.79032,-1.36707 2.4414,-1.36718 0.26038,1.1e-4 0.5208,0.0652 0.78125,0.19531 l -0.0976,0.68359 c -0.26046,0.13033 -0.52087,0.4233 -0.78125,0.87891 0.32548,0.26053 0.78121,0.68371 1.36718,1.26953 0.0651,0.26053 0.0651,0.52095 0,0.78125 0.39059,0.58605 0.5859,0.94412 0.58594,1.07422 m 52.24609,54.49219 c -0.13029,0.13026 -0.2605,0.39068 -0.39062,0.78125 -0.45582,-0.19526 -0.68368,-0.42312 -0.68359,-0.6836 l 0.19531,-0.48828 0.58594,0 0.29296,0.39063 m -1.36718,2.92968 -0.39063,0.29297 c -0.32561,-0.13015 -0.55347,-0.32546 -0.68359,-0.58593 l 0.39062,-0.48829 0.6836,0.19532 0,0.58593 M 283.60556,384.7666 c -0.13024,0.19542 -0.293,0.48839 -0.48828,0.87891 l -0.58594,-0.0977 -0.29297,-0.39062 c -3e-5,-0.32541 0.0651,-0.58583 0.19532,-0.78125 l 0.8789,0 0.29297,0.39062 m 29.98047,36.91406 -0.29297,0.6836 -0.68359,0.19531 -0.29297,-0.58594 0.58594,-0.68359 0.68359,0.39062 m -1.5625,-0.39062 -0.29297,0.29297 -0.19531,0 c -0.39068,7e-5 -0.586,-0.2929 -0.58594,-0.87891 l 0.39063,-0.58594 0.68359,0.39063 0,0.78125 m -1.17188,-1.07422 -0.39062,0.29297 c -0.32558,-0.13013 -0.58599,-0.29289 -0.78125,-0.48828 0.065,-0.19524 0.19526,-0.48821 0.39062,-0.87891 0.26036,0.13029 0.52078,0.3256 0.78125,0.58594 l 0,0.48828 m 1.66016,2.83203 c -0.13027,0.4558 -0.32558,0.68367 -0.58594,0.6836 -0.19537,7e-5 -0.39068,-0.19525 -0.58593,-0.58594 l 0.39062,-0.6836 c 0.26036,0.13029 0.52078,0.3256 0.78125,0.58594 M 280.3829,400.19629 c -2e-5,0.0652 -0.0326,0.29306 -0.0976,0.68359 l -0.78125,0 c 0.0651,-0.52074 0.16273,-0.91136 0.29297,-1.17187 l 0.48828,0 0.0976,0.19531 0,0.29297 m 54.78516,59.17969 c -0.0652,0.19535 -0.22795,0.48831 -0.48828,0.8789 l -0.58594,-0.39062 0.0977,-0.48828 0.19531,-0.19532 c 0.39054,4e-5 0.65096,0.0651 0.78125,0.19532 m -12.98828,-9.66797 -0.0977,0.8789 -0.68359,-0.0976 -0.29297,-0.48828 0.48828,-0.48828 0.58594,0.19531 m 69.92187,75.78125 -0.0976,0.19531 -0.39063,-0.19531 0.0977,-0.19531 0.39062,0.19531 m -86.42578,-85.35156 -0.19531,0.48828 -0.68359,-0.39063 0.19531,-0.48828 0.58594,0 0.0976,0.39063 m -2.73437,5.5664 -0.29297,0.87891 -0.68359,-0.0977 0,-0.29297 c -5e-5,-0.13016 0.065,-0.39057 0.19531,-0.78125 l 0.78125,0.29297 m -1.5625,-0.0976 -0.48828,0.19531 c -0.45578,5e-5 -0.68364,-0.22782 -0.6836,-0.6836 -4e-5,-0.065 0.0651,-0.26036 0.19532,-0.58593 l 0.68359,0.0976 c 0.0651,0.13026 0.16271,0.35813 0.29297,0.6836 l 0,0.29297 M 272.6681,418.65333 c -2e-5,0.0652 -0.0326,0.29305 -0.0977,0.68359 l -0.8789,-0.19531 0,-1.07422 0.8789,0.0977 c 0.0651,0.13028 0.0976,0.29304 0.0977,0.48828 m 0.78125,1.5625 -0.39062,0.68359 -0.6836,0 0,-0.48828 c -2e-5,-0.13013 0.0651,-0.39055 0.19531,-0.78125 0.58592,0.0652 0.87889,0.2605 0.87891,0.58594 m 1.17188,1.75781 -0.0977,0.6836 -0.48828,0.29297 c -0.78127,7e-5 -1.1719,-0.39056 -1.17188,-1.17188 -2e-5,-0.26034 0.1953,-0.48821 0.58594,-0.68359 -2e-5,7e-5 0.39061,0.29304 1.17188,0.8789 m -3.71094,-3.125 c -0.39064,0.0652 -1.00913,0.22794 -1.85547,0.48828 l -0.58594,-0.58593 c 0.2604,-0.52076 0.52082,-0.78118 0.78125,-0.78125 l 0.39063,0.29297 0.39062,-0.29297 0.87891,0.0976 0,0.78125 m 3.71094,4.49219 c -0.13023,0.3907 -0.19534,0.68367 -0.19532,0.87891 l -0.48828,0 -0.58594,-0.29297 0.29297,-0.78125 c 0.3255,7e-5 0.65102,0.0652 0.97657,0.19531 m -0.19532,1.95313 c -2e-5,0.26048 -0.19533,0.55345 -0.58593,0.8789 -0.58596,-0.13014 -0.87893,-0.2929 -0.87891,-0.48828 l 0,-0.19531 0.58594,-0.6836 0.48828,0 0.39062,0.29297 0,0.19532 m -0.39062,2.34375 -0.29297,0.68359 -0.68359,0 -0.19532,-0.19531 0,-0.87891 0.58594,-0.29297 0.48828,0 c 0.0651,0.13028 0.0976,0.29304 0.0977,0.48828 l 0,0.19532 m 37.10937,38.96484 -0.39062,0.39062 -0.6836,-0.39062 0.39063,-0.78125 c 0.45567,0.26045 0.68354,0.52086 0.68359,0.78125 m -2.34375,-1.5625 -0.19531,0.48828 c -0.19537,-0.0651 -0.48834,-0.16273 -0.87891,-0.29297 l 0.39063,-0.78125 c 0.39057,0.19535 0.61843,0.39066 0.68359,0.58594 m -2.14843,-0.48828 -0.0977,0.8789 c -0.19537,-0.0651 -0.48833,-0.19528 -0.87891,-0.39062 l 0.19532,-0.48828 0.78125,0 m -15.42969,7.91015 c -0.19535,3e-5 -0.48832,-0.0651 -0.87891,-0.19531 -0.32556,-0.13018 -0.58597,-0.19529 -0.78125,-0.19531 0.32549,-0.19529 0.55335,-0.42315 0.6836,-0.68359 l 0.68359,0 c 0.0651,0.26044 0.16272,0.61851 0.29297,1.07421 m 2.83203,26.46485 c -4e-5,0.58593 -0.19535,0.8789 -0.58594,0.8789 l -0.19531,0 -0.48828,-0.48828 c -4e-5,-0.39063 0.22782,-0.7487 0.68359,-1.07422 0.39059,0.19531 0.5859,0.42318 0.58594,0.6836"
         style="font-size:200px;fill:#000000;fill-opacity:1;stroke:none"
         id="path3799"
         inkscape:connector-curvature="0" />
    </g>
    <g
       style="font-size:24px;font-style:normal;font-variant:normal;font-weight:normal;font-stretch:normal;text-align:center;line-height:125%;letter-spacing:0px;word-spacing:0px;text-anchor:middle;fill:#000000;fill-opacity:1;stroke:none;font-family:Droid Sans;-inkscape-font-specification:Droid Sans"
       id="text3825"
       transform="translate(-63.63961,98.99495)" />
    <path
       sodipodi:nodetypes="ccccccccccccccccccccccccccccccccccccccc"
       inkscape:connector-curvature="0"
       id="path3867"
       style="font-size:200px;font-style:normal;font-variant:normal;font-weight:normal;font-stretch:normal;text-align:center;line-height:125%;letter-spacing:0px;word-spacing:0px;text-anchor:middle;fill:#ffffff;fill-opacity:1;stroke:none;font-family:Droid Sans;-inkscape-font-specification:Droid Sans"
       d="m 418.74794,296.609 c -1.9533,0.52096 -4.75277,1.59518 -8.39844,3.22266 -0.13037,1.82304 -0.19548,4.55741 -0.19531,8.20312 -1.10694,-1.56238 -2.70199,-3.87357 -4.78516,-6.93359 -3.25536,0.91158 -6.25015,1.88814 -8.98437,2.92969 3.84099,-4.49206 5.76156,-6.90092 5.76172,-7.22657 -1.6e-4,-0.19518 -1.92073,-2.60403 -5.76172,-7.22656 l 8.59375,3.02734 c 2.27848,-2.86444 4.00374,-5.30585 5.17578,-7.32421 l 0,1.85546 c -1.7e-4,0.0652 0.0649,2.31134 0.19531,6.73829 1.43213,0.65117 4.2316,1.56263 8.39844,2.73437 m -43.16406,23.73047 c -1.1069,0.32563 -4.55742,1.46495 -10.35156,3.41797 -1.3e-4,1.17198 0.0324,2.96234 0.0976,5.37109 0.065,2.34385 0.0975,4.10166 0.0977,5.27344 -2.66939,-3.97126 -4.88293,-6.9986 -6.64063,-9.08203 l -10.15625,3.80859 6.9336,-8.59375 c -1.56261,-2.01812 -3.87381,-5.01291 -6.9336,-8.98437 1.75771,0.78136 5.27333,2.05089 10.54688,3.80859 1.36707,-1.7577 3.4504,-4.85014 6.25,-9.27734 -1.2e-4,1.17199 -0.0652,2.99491 -0.19531,5.46875 -0.0652,2.47407 -0.0978,4.29698 -0.0977,5.46875 2.27852,0.78136 5.76159,1.88813 10.44922,3.32031 m -100.58589,28.51562 c -1.23701,0.39071 -3.02737,1.0092 -5.37109,1.85547 l 0,0.6836 c -3e-5,0.52091 0.0325,1.36726 0.0977,2.53906 0.0651,1.10684 0.0976,1.92064 0.0977,2.44141 -0.78128,-1.0416 -1.95315,-2.63665 -3.51563,-4.78516 -1.237,0.3256 -3.09246,0.91153 -5.5664,1.75781 2.34373,-2.27857 3.5156,-3.77596 3.51562,-4.49219 -2e-5,-0.19523 -1.17189,-1.85538 -3.51562,-4.98046 2.47394,1.23706 4.1992,1.85555 5.17578,1.85546 0.65102,9e-5 1.9531,-1.66007 3.90625,-4.98046 -3e-5,0.65112 -0.0651,1.66024 -0.19531,3.02734 -0.0651,1.30217 -0.0977,2.27873 -0.0977,2.92969 2.0182,0.91154 3.84112,1.62768 5.46875,2.14843" />
    <path
       sodipodi:nodetypes="cccccccccc"
       inkscape:connector-curvature="0"
       id="path3867-1"
       style="font-size:200px;font-style:normal;font-variant:normal;font-weight:normal;font-stretch:normal;text-align:center;line-height:125%;letter-spacing:0px;word-spacing:0px;text-anchor:middle;fill:#000000;fill-opacity:1;stroke:none;font-family:Droid Sans;-inkscape-font-specification:Droid Sans"
       d="m 489.00583,335.18158 c -7e-5,5.72928 -1.82299,11.10037 -5.46875,16.11328 -3.58079,4.94802 -8.10553,8.39853 -13.57422,10.35156 4.68745,-5.92438 7.03119,-12.23948 7.03125,-18.94531 -6e-5,-7.81238 -2.73443,-14.48555 -8.20312,-20.01953 -5.4688,-5.53372 -12.10942,-8.30064 -19.92188,-8.30078 -0.45576,1.4e-4 -3.12503,0.35821 -8.00781,1.07421 5.46872,-5.59881 12.07679,-8.39828 19.82422,-8.39843 7.68224,1.5e-4 14.32286,2.76707 19.92187,8.30078 5.59889,5.53399 8.39837,12.14205 8.39844,19.82422" />
  </g>
</svg>
